# xmcd
#
# Track frame offsets: 
#        150
#        21878
#        44344
#        66195
#        87170
#        106675
#        127250
#        148195
#        169348
#        190605
#        208700
#        227898
#
# Disc length: 3328 seconds
#
# Revision: 0
# Processed by: cddbd v1.5.2PL0 Copyright (c) Steve Scherf et al.
# Submitted via: ExactAudioCopy v1.0b4
#
DISCID=ab0cfe0c
DTITLE=Ms. Jody - I Got the Feeling
DYEAR=2016
DGENRE=Blues
TTITLE0=There's a Party Goin' On
TTITLE1=Come On
TTITLE2=Zydeco Rodeo
TTITLE3=Dogettes
TTITLE4=Don't Back up off It
TTITLE5=It's Too Late to Do Right Now
TTITLE6=This Place Is Hot
TTITLE7=All True Man
TTITLE8=I Got the Feeling
TTITLE9=I'm Tired of Being a Secret
TTITLE10=Makin' Love Is Always Better When the Bills Are Paid
TTITLE11=You Got to Leave Me Baby
EXTD=
EXTT0=
EXTT1=
EXTT2=
EXTT3=
EXTT4=
EXTT5=
EXTT6=
EXTT7=
EXTT8=
EXTT9=
EXTT10=
EXTT11=
PLAYORDER=
